<svg width="580" height="400" xmlns="http://www.w3.org/2000/svg">
 <!-- Created with SVG Editor - http://github.com/mzalive/SVG Editor/ -->

 <g>
  <title>background</title>
  <rect fill="none" id="canvas_background" height="402" width="582" y="-1" x="-1"/>
  <g display="none" overflow="visible" y="0" x="0" height="100%" width="100%" id="canvasGrid">
   <rect fill="url(#gridpattern)" stroke-width="0" y="0" x="0" height="100%" width="100%"/>
  </g>
 </g>
 <g>
  <title>Layer 1</title>
  <path stroke-width="15" d="m247.5,283.220879c0,-1 0.458801,-1.693451 1,-3c0.38269,-0.923889 0.486252,-2.823761 1,-5c0.229752,-0.973236 0.493454,-2.878571 1,-6c0.480545,-2.961258 0.493454,-4.878555 1,-8c0.480545,-2.961258 0.60585,-7.01947 1,-11c0.502441,-5.074203 2.465515,-9.838089 4,-15c1.452942,-4.887634 2.881348,-11.025208 4,-16c0.904572,-4.022659 3.188354,-8.943665 4,-12c1.308746,-4.928207 3,-9 4,-13c1,-4 1.847229,-8.041321 3,-12c0.884125,-3.036163 2,-7 3,-11c1,-4 0.847229,-7.041321 2,-11c0.884125,-3.036163 2.486267,-5.823746 3,-8c0.68927,-2.919754 1,-5 2,-7c1,-2 1.839813,-4.012909 2,-5c0.506531,-3.121445 2.458801,-4.693436 3,-6c0.765381,-1.847755 0.234619,-4.152245 1,-6c0.541199,-1.306564 1.486267,-1.823746 2,-4c0.229767,-0.973251 1.458801,-1.693436 2,-3c0.765381,-1.847755 0.61731,-3.076118 1,-4c0.541199,-1.306564 0.61731,-1.923882 1,-1c0.541199,1.306564 2.144287,3.934143 3,6c1.210144,2.921562 2.144287,5.934143 3,8c1.210144,2.921562 1.847229,6.041321 3,10c0.884125,3.036163 2.731445,8.076889 4,12c1.65686,5.123947 4.23172,9.927673 6,16c1.152771,3.958679 2.569519,9.132996 4,13c0.775787,2.097168 2.144287,5.934143 3,8c1.210144,2.92157 3.115875,6.963837 4,10c1.152771,3.958679 2,8 3,11c1,3 1.31073,6.080246 2,9c0.513733,2.176254 0.540497,4.053497 1,6c0.513733,2.176254 0.540497,4.053497 1,6c0.513733,2.176254 1,4 1,7c0,3 1,5 1,8c0,3 0.493469,4.878555 1,8c0.320374,1.974182 0.486267,3.823746 1,6c0.459503,1.946503 0.486267,3.823746 1,6c0.459503,1.946503 -0.765381,4.152237 0,6c0.541199,1.306549 1,2 1,3c0,1 -0.707092,2.292908 0,3c0.707092,0.707092 0.292908,1.292908 1,2c0.707092,0.707092 1,1 1,2l1,1l0,1" id="svg_5" stroke="#64ffda" fill="none"/>
  <path stroke-width="15" d="m264.5,198.448944c1,0 2.076111,0.61731 3,1c1.306549,0.541199 2,1 3,1c1,0 2,1 3,1c1,0 3,0 4,0c2,0 4,0 6,0c1,0 3,0 5,0c2,0 4,0 7,0c1,0 3,0 5,0c1,0 2,-1 3,-1c1,0 2,0 3,0c1,0 1.823761,0.486252 4,1c0.973236,0.229752 3,0 4,0c1,0 2,0 3,0c1,0 2,0 3,0c1,0 2,0 3,0c1,0 2,0 3,0c1,0 2,0 2,-1l1,0" id="svg_6" stroke="#64ffda" fill="none"/>
  <path stroke-width="15" d="m371.5,138.5c1,0 1,1 2,2c1,1 2,2 3,3c1,1 2,2 4,4c1,1 2.346191,2.70546 4,5c1.307465,1.813995 2.714111,4.21167 5,7c1.793182,2.187347 4,5 6,7c2,2 4.173096,3.852737 5,5c1.307465,1.813995 2.292908,2.292892 3,3c0.707092,0.707108 1.076111,1.61731 2,2c1.306549,0.541199 1.692535,2.186005 3,4c0.826904,1.147263 2.692535,3.186005 4,5c1.653809,2.29454 3,4 5,6c1,1 2.458801,1.693436 3,3c0.38269,0.923874 1.458801,0.693436 2,2c0.38269,0.923874 1.186005,1.692551 3,3c2.294525,1.653809 4.418854,3.418854 6,5c1.581146,1.581146 2.292908,2.292892 3,3c0.707092,0.707108 -0.458801,1.693436 -1,3c-0.38269,0.923874 -1,2 -2,3c-2,2 -4.21167,2.714127 -7,5c-3.281006,2.689789 -6,4 -9,6c-3,2 -4.881531,4.190277 -8,6c-1.93399,1.122345 -5,3 -8,6c-2,2 -4.812653,4.206802 -7,6c-2.78833,2.285873 -5.186005,3.692551 -7,5c-2.294525,1.653809 -4.21167,3.714127 -7,6c-2.187347,1.793198 -3.418854,3.418854 -5,5c-1.581146,1.581146 -3,2 -4,2l0,1" id="svg_9" stroke="#64ffda" fill="none"/>
  <path stroke-width="15" d="m208.5,142c-1,0 -1.458801,0.693436 -2,2c-0.38269,0.923874 -0.2565,1.796997 -1,3c-1.662506,2.689987 -2.346191,4.70546 -4,7c-1.307449,1.813995 -2.346191,3.70546 -4,6c-1.307449,1.813995 -2,3 -3,4c-1,1 -2,2 -3,3c-1,1 -1.418854,2.418854 -3,4c-1.581146,1.581146 -2.692551,2.186005 -4,4c-0.826904,1.147263 -3.418854,3.418854 -5,5c-1.581146,1.581146 -3,3 -4,4c-1,1 -2,2 -3,3c-1,1 -2,2 -3,3c-1,1 -1.076126,1.61731 -2,2c-1.306564,0.541199 -1,2 -2,3c-1,1 -1.418854,2.418854 -3,4c-1.581146,1.581146 -1.70546,2.346191 -4,4c-1.813995,1.307449 -3,3 -4,4c-1,1 -2,2 -3,3c-1,1 -1.292892,2.292892 -2,3c-0.707108,0.707108 -1.458801,0.693436 -2,2c-0.38269,0.923874 -0.292892,1.292892 -1,2c-0.707108,0.707108 -1.61731,0.076126 -2,1c-0.541199,1.306564 5,4 6,4c1,0 2.026749,0.770248 3,1c2.176254,0.513748 3,1 5,2c2,1 3.186005,0.692551 5,2c1.147263,0.826904 3.076126,1.61731 4,2c1.306564,0.541199 2.852737,1.173096 4,2c1.813995,1.307449 3,2 5,3c2,1 2.70546,2.346191 5,4c1.813995,1.307449 4,3 5,4c1,1 2,1 3,2c1,1 1.693436,2.458801 3,3c0.923874,0.38269 3.418854,1.418854 5,3c1.581146,1.581146 2.852737,3.173096 4,4c1.813995,1.307465 3.076126,1.61731 4,2c1.306564,0.541199 2,1 2,2l1,0l1,0" id="svg_10" stroke="#64ffda" fill="none"/>
 </g>
</svg>